<?xml version="1.0" encoding="utf-8"?>
<!-- Generator: Adobe Illustrator 27.5.0, SVG Export Plug-In . SVG Version: 6.00 Build 0)  -->
<svg version="1.1" id="Layer_1" xmlns="http://www.w3.org/2000/svg" xmlns:xlink="http://www.w3.org/1999/xlink" x="0px" y="0px"
	 viewBox="0 0 989 347.5" style="enable-background:new 0 0 989 347.5;" xml:space="preserve">
<style type="text/css">
	.st0{fill:#45BACE;}
</style>
<path d="M103.83,322.13V106.29c0-2.63,2.13-4.76,4.76-4.76h50.81c2.63,0,4.76,2.13,4.76,4.76v215.84c0,2.63-2.13,4.76-4.76,4.76
	H108.6C105.97,326.89,103.83,324.76,103.83,322.13z"/>
<path d="M218.07,322.13V106.29c0-2.63,2.13-4.76,4.76-4.76h49.57c2.63,0,4.76,2.13,4.76,4.76v9.44c0,4.22,5.08,6.34,8.08,3.37
	c6.52-6.46,13.78-11.59,21.77-15.4c11.47-5.46,24.26-8.19,38.36-8.19c24.88,0,43.5,6.46,55.87,19.38
	c12.37,12.93,18.56,32.38,18.56,58.36v148.87c0,2.63-2.13,4.76-4.76,4.76h-50.81c-2.63,0-4.76-2.13-4.76-4.76V190.68
	c0-16.17-2.73-27.71-8.19-34.62c-5.46-6.91-14.34-10.36-26.64-10.36c-14.24,0-25.5,4.25-33.79,12.75
	c-8.29,8.5-12.44,20.08-12.44,34.73v128.96c0,2.63-2.13,4.76-4.76,4.76h-50.81C220.2,326.89,218.07,324.76,218.07,322.13z"/>
<path d="M526.06,323.74L448.42,107.9c-1.12-3.1,1.18-6.37,4.48-6.37h56.39c2.13,0,3.99,1.41,4.58,3.45l40.69,142.32
	c1.31,4.6,7.83,4.61,9.15,0.01l41.06-142.34c0.59-2.04,2.45-3.44,4.58-3.44h53.3c3.29,0,5.59,3.26,4.48,6.37L589.9,323.73
	c-0.68,1.89-2.47,3.16-4.48,3.16h-54.88C528.53,326.89,526.74,325.63,526.06,323.74z"/>
<path d="M685.18,213.9c0-37.46,10.16-66.9,30.48-88.32c20.32-21.42,48.24-32.13,83.76-32.13c35.38,0,63.27,10.71,83.66,32.13
	c20.39,21.43,30.58,50.87,30.58,88.32c0,37.6-10.19,67.1-30.58,88.53c-20.39,21.43-48.27,32.14-83.66,32.14
	c-35.52,0-63.44-10.71-83.76-32.14C695.33,281,685.18,251.49,685.18,213.9z M746.34,213.9c0,22.39,4.59,39.67,13.79,51.83
	c9.19,12.16,22.29,18.24,39.29,18.24c16.72,0,29.68-6.08,38.87-18.24c9.19-12.16,13.79-29.44,13.79-51.83
	c0-22.25-4.56-39.42-13.68-51.52s-22.12-18.14-38.98-18.14c-17,0-30.1,6.05-39.29,18.14C750.93,174.47,746.34,191.65,746.34,213.9z"
	/>
<path class="st0" d="M103.83,71.68V26.26c0-2.63,2.13-4.76,4.76-4.76h50.81c2.63,0,4.76,2.13,4.76,4.76v45.42
	c0,2.63-2.13,4.76-4.76,4.76H108.6C105.97,76.44,103.83,74.31,103.83,71.68z"/>
<circle class="st0" cx="950.62" cy="309.96" r="25.54"/>
</svg>
